<svg xmlns="http://www.w3.org/2000/svg" width="318.85986328125" height="81.34504699707031" viewBox="-250.08778381347656 -41.54243469238281 318.85986328125 81.34504699707031"><title>Neo4j Graph Visualization</title><desc>Created using Neo4j (http://www.neo4j.com/)</desc><g class="layer relationships"><g class="relationship" transform="translate(-134.2968692779541 -1.542433119460938) rotate(360.4725824296096)"><path class="b-outline" fill="#A5ABB6" stroke="none" d="M 40 0.5 L 57.920051055030356 0.5 L 57.920051055030356 -0.5 L 40 -0.5 Z M 98.15442605503036 0.5 L 116.07447711006071 0.5 L 116.07447711006071 3.5 L 123.07447711006071 0 L 116.07447711006071 -3.5 L 116.07447711006071 -0.5 L 98.15442605503036 -0.5 Z"/><text text-anchor="middle" pointer-events="none" font-size="8px" fill="#000000" x="78.03723855503036" y="3" font-family="Helvetica Neue, Helvetica, Arial, sans-serif">IS_NEAR</text></g><g class="relationship" transform="translate(-134.2968692779541 -1.542433119460938) rotate(450.4725824296096)"><path class="b-outline" fill="#A5ABB6" stroke="none" d="M 10.835724717245366 38.50762352901147 L 21.188486521346196 77.14465658057419 A 21.935935394489817 21.935935394489817 0 1 1 -21.188486521346196 77.14465658057419 L -12.647458032963009 45.26910431303495 L -8.783754727806736 46.30438049344503 L -10.352761804100831 38.63703305156273 L -15.545235511830214 44.49264717772739 L -11.68153220667394 45.52792335813747 L -20.22256069505713 77.40347562567672 A 20.935935394489817 20.935935394489817 0 1 0 20.22256069505713 77.40347562567672 L 9.869798890956297 38.76644257411399 Z"/><text text-anchor="middle" pointer-events="none" font-size="8px" fill="#000000" x="0" y="113.75802982729645" transform="rotate(180 0 110.75802982729645)" font-family="Helvetica Neue, Helvetica, Arial, sans-serif">SECTION</text></g></g><g class="layer nodes"><g class="node" aria-label="graph-node-2" transform="translate(-134.2968692779541,-1.542433119460938)" style="touch-action: none; -webkit-tap-highlight-color: rgba(0, 0, 0, 0);"><circle class="b-outline" cx="0" cy="0" r="40" fill="#F16667" stroke="#eb2728" stroke-width="2px"/><text class="caption" text-anchor="middle" pointer-events="none" x="0" y="5" font-size="10px" fill="#FFFFFF" font-family="Helvetica Neue, Helvetica, Arial, sans-serif"> OperationalPoint</text></g><g class="node" aria-label="graph-node-3" transform="translate(28.77206076508132,-0.19739061480435183)" style="touch-action: none; -webkit-tap-highlight-color: rgba(0, 0, 0, 0);"><circle class="b-outline" cx="0" cy="0" r="40" fill="#8DCC93" stroke="#5db665" stroke-width="2px"/><text class="caption" text-anchor="middle" pointer-events="none" x="0" y="5" font-size="10px" fill="#2A2C34" font-family="Helvetica Neue, Helvetica, Arial, sans-serif"> POI</text></g></g></svg>