<svg xmlns="http://www.w3.org/2000/svg" width="361.7212829589844" height="278.111328125" viewBox="-298.5375061035156 -79.58344268798828 361.7212829589844 278.111328125"><title>Neo4j Graph Visualization</title><desc>Created using Neo4j (http://www.neo4j.com/)</desc><g class="layer relationships"><g class="relationship" transform="translate(-186.12680101450027 7.805289071085795) rotate(360.35814163549304)"><path class="b-outline" fill="#A5ABB6" stroke="none" d="M 40 0.5 L 83.71201825237901 0.5 L 83.71201825237901 -0.5 L 40 -0.5 Z M 118.60264325237901 0.5 L 162.31466150475802 0.5 L 162.31466150475802 3.5 L 169.31466150475802 0 L 162.31466150475802 -3.5 L 162.31466150475802 -0.5 L 118.60264325237901 -0.5 Z"/><text text-anchor="middle" pointer-events="none" font-size="8px" fill="#000000" x="101.15733075237901" y="3" font-family="Helvetica Neue, Helvetica, Arial, sans-serif">NAMED</text></g><g class="relationship" transform="translate(-186.12680101450027 7.805289071085795) rotate(483.06143122626327)"><path class="b-outline" fill="#A5ABB6" stroke="none" d="M 10.835724717245366 38.50762352901147 L 21.188486521346196 77.14465658057419 A 21.935935394489817 21.935935394489817 0 1 1 -21.188486521346196 77.14465658057419 L -12.647458032963009 45.26910431303495 L -8.783754727806736 46.30438049344503 L -10.352761804100831 38.63703305156273 L -15.545235511830214 44.49264717772739 L -11.68153220667394 45.52792335813747 L -20.22256069505713 77.40347562567672 A 20.935935394489817 20.935935394489817 0 1 0 20.22256069505713 77.40347562567672 L 9.869798890956297 38.76644257411399 Z"/><text text-anchor="middle" pointer-events="none" font-size="8px" fill="#000000" x="0" y="113.75802982729645" transform="rotate(180 0 110.75802982729645)" font-family="Helvetica Neue, Helvetica, Arial, sans-serif">SECTION</text></g><g class="relationship" transform="translate(-186.12680101450027 7.805289071085795) rotate(425.7647208170335)"><path class="b-outline" fill="#A5ABB6" stroke="none" d="M 40 0.5 L 59.02781064811299 0.5 L 59.02781064811299 -0.5 L 40 -0.5 Z M 99.26218564811299 0.5 L 118.28999629622598 0.5 L 118.28999629622598 3.5 L 125.28999629622598 0 L 118.28999629622598 -3.5 L 118.28999629622598 -0.5 L 99.26218564811299 -0.5 Z"/><text text-anchor="middle" pointer-events="none" font-size="8px" fill="#000000" x="79.14499814811299" y="3" font-family="Helvetica Neue, Helvetica, Arial, sans-serif">IS_NEAR</text></g></g><g class="layer nodes"><g class="node" aria-label="graph-node-2" transform="translate(-186.12680101450027,7.805289071085795)" style="touch-action: none; -webkit-tap-highlight-color: rgba(0, 0, 0, 0);"><circle class="b-outline" cx="0" cy="0" r="40" fill="#4C8EDA" stroke="#2870c2" stroke-width="2px"/><text class="caption" text-anchor="middle" pointer-events="none" x="0" y="5" font-size="10px" fill="#FFFFFF" font-family="Helvetica Neue, Helvetica, Arial, sans-serif"> OperationalPoint</text></g><g class="node" aria-label="graph-node-3" transform="translate(23.183771344415888,9.113654323744187)" style="touch-action: none; -webkit-tap-highlight-color: rgba(0, 0, 0, 0);"><circle class="b-outline" cx="0" cy="0" r="40" fill="#C990C0" stroke="#b261a5" stroke-width="2px"/><text class="caption" text-anchor="middle" pointer-events="none" x="0" y="5" font-size="10px" fill="#FFFFFF" font-family="Helvetica Neue, Helvetica, Arial, sans-serif"> OperationalPoi…</text></g><g class="node" aria-label="graph-node-4" transform="translate(-118.2778058069011,158.52787107167913)" style="touch-action: none; -webkit-tap-highlight-color: rgba(0, 0, 0, 0);"><circle class="b-outline" cx="0" cy="0" r="40" fill="#569480" stroke="#447666" stroke-width="2px"/><text class="caption" text-anchor="middle" pointer-events="none" x="0" y="5" font-size="10px" fill="#FFFFFF" font-family="Helvetica Neue, Helvetica, Arial, sans-serif"> POI</text></g></g></svg>